<svg xmlns="http://www.w3.org/2000/svg" viewBox="0 0 1440 320" fill="var(--color3)"><path fill-opacity="1" d="M0,64L8.3,53.3C16.6,43,33,21,50,48C66.2,75,83,149,99,197.3C115.9,245,132,267,149,240C165.5,213,182,139,199,101.3C215.2,64,232,64,248,85.3C264.8,107,281,149,298,160C314.5,171,331,149,348,117.3C364.1,85,381,43,397,32C413.8,21,430,43,447,53.3C463.4,64,480,64,497,80C513.1,96,530,128,546,138.7C562.8,149,579,139,596,144C612.4,149,629,171,646,154.7C662.1,139,679,85,695,53.3C711.7,21,728,11,745,10.7C761.4,11,778,21,794,69.3C811,117,828,203,844,229.3C860.7,256,877,224,894,197.3C910.3,171,927,149,943,138.7C960,128,977,128,993,149.3C1009.7,171,1026,213,1043,234.7C1059.3,256,1076,256,1092,266.7C1109,277,1126,299,1142,309.3C1158.6,320,1175,320,1192,282.7C1208.3,245,1225,171,1241,149.3C1257.9,128,1274,160,1291,176C1307.6,192,1324,192,1341,176C1357.2,160,1374,128,1390,101.3C1406.9,75,1423,53,1432,42.7L1440,32L1440,320L1431.7,320C1423.4,320,1407,320,1390,320C1373.8,320,1357,320,1341,320C1324.1,320,1308,320,1291,320C1274.5,320,1258,320,1241,320C1224.8,320,1208,320,1192,320C1175.2,320,1159,320,1142,320C1125.5,320,1109,320,1092,320C1075.9,320,1059,320,1043,320C1026.2,320,1010,320,993,320C976.6,320,960,320,943,320C926.9,320,910,320,894,320C877.2,320,861,320,844,320C827.6,320,811,320,794,320C777.9,320,761,320,745,320C728.3,320,712,320,695,320C678.6,320,662,320,646,320C629,320,612,320,596,320C579.3,320,563,320,546,320C529.7,320,513,320,497,320C480,320,463,320,447,320C430.3,320,414,320,397,320C380.7,320,364,320,348,320C331,320,314,320,298,320C281.4,320,265,320,248,320C231.7,320,215,320,199,320C182.1,320,166,320,149,320C132.4,320,116,320,99,320C82.8,320,66,320,50,320C33.1,320,17,320,8,320L0,320Z"></path></svg>